<?xml version="1.0" encoding="utf-8"?>
<!-- Generator: Adobe Illustrator 28.4.1, SVG Export Plug-In . SVG Version: 6.00 Build 0)  -->
<svg version="1.1" xmlns="http://www.w3.org/2000/svg" xmlns:xlink="http://www.w3.org/1999/xlink" x="0px" y="0px"
	 viewBox="0 0 222 198" style="enable-background:new 0 0 222 198;" xml:space="preserve">
<style type="text/css">
	.st0{fill:#559161;}
	.st1{fill:#FFFFFF;}
</style>
<g id="Слой_1">
	<g>
		<circle class="st0" cx="110" cy="97" r="78"/>
	</g>
</g>
<g id="Слой_3">
	<g>
		<path class="st1" d="M163.7,118.7c-3.52,3.51-9.21,3.51-12.73,0L104.3,72.03c-1.76-1.76-2.63-4.06-2.63-6.37
			c0-2.3,0.87-4.6,2.63-6.36c3.52-3.51,9.21-3.51,12.73,0l46.67,46.67C167.21,109.49,167.21,115.18,163.7,118.7z"/>
	</g>
	<g>
		<path class="st1" d="M57,118.72L57,118.72c3.51,3.51,9.21,3.51,12.73,0l46.67-46.67c3.51-3.51,3.51-9.21,0-12.73l0,0
			c-3.51-3.51-9.21-3.51-12.73,0L57,105.99C53.49,109.5,53.49,115.2,57,118.72z"/>
	</g>
</g>
</svg>
